<svg width="1075" height="304" viewBox="0 0 1075 304" fill="none" xmlns="http://www.w3.org/2000/svg">
<path d="M829.336 93.7196V158.92C829.336 162.902 827.7 166.82 824.845 169.666C822.036 172.466 818.364 174.011 814.491 174.011H814.464C809.164 174.011 804.227 171.43 801.273 167.12L744.09 79.9558C737.945 70.4193 729.19 64.5283 718.053 62.4283C715.281 61.901 712.49 61.6465 709.726 61.6465C699.271 61.6465 689.053 65.3011 680.771 72.1648C670.035 81.0649 663.88 94.1559 663.88 108.083V242.267C680.398 240.93 693.426 227.048 693.426 210.194V105.938C693.426 97.4742 700.399 91.1014 709.644 91.1014C714.235 91.1014 718.39 93.4559 721.053 97.5833L780.027 184.193C789.054 197.403 800.018 203.557 814.491 203.557H814.709C839.064 203.457 858.882 183.366 858.882 158.775V61.6556C842.364 62.992 829.336 76.8648 829.336 93.7196Z" fill="#F3FFF9"/>
<path d="M216.53 0H119.056C53.3097 0 0 53.3097 0 119.065C0 150.765 0 180.347 0.00909101 202.575C0.00909101 222.412 16.0911 238.484 35.9368 238.494C71.5372 238.494 118.301 238.494 119.056 238.494C137.229 238.494 154.411 245.666 167.438 258.694C179.502 270.758 186.548 286.385 187.52 303.058C201.484 301.858 213.53 293.903 220.221 281.276C227.466 267.603 226.621 251.803 217.948 239.012C195.802 206.357 159.893 187.629 119.438 187.629C118.801 187.629 55.7643 187.629 55.2643 187.611L51.5188 187.538L51.046 114.056V113.901C52.3642 96.5738 60.1734 80.5282 73.0554 68.7189C85.8919 56.9552 102.547 50.4733 119.974 50.4733H215.63C232.839 50.4733 249.357 56.8188 262.121 68.328C274.939 79.8918 282.867 95.6738 284.44 112.756C285.34 122.52 284.167 132.138 280.949 141.338C277.876 150.147 273.094 158.138 266.739 165.102C253.685 179.411 235.248 187.62 216.148 187.62H203.457C220.521 199.757 235.112 215.848 246.176 234.812C298.158 221.175 335.595 172.947 335.595 119.038C335.586 53.4097 282.185 0 216.53 0Z" fill="#F3FFF9"/>
<path d="M396.749 89.4116C396.749 73.7842 409.422 61.1113 425.049 61.1113H425.24V199.74C425.24 207.84 431.868 214.468 439.968 214.468H525.078C540.814 214.468 553.569 227.222 553.569 242.959C526.796 242.959 466.168 242.959 439.586 242.959C411.667 242.959 397.704 225.94 396.749 199.74V89.4116Z" fill="#F3FFF9"/>
<path d="M663.869 61.4648L627.151 138.72C619.314 154.211 607.069 163.966 593.687 167.784V242.94C577.741 242.94 564.814 230.012 564.814 214.067V167.784C551.814 164.148 539.186 154.593 531.923 138.72L494.822 61.4648H526.377L557.168 126.484C567.496 146.948 591.014 146.948 601.723 126.484L632.324 61.4648H663.879H663.869Z" fill="#F3FFF9"/>
<path d="M1004.13 61.4668H946.111C907.219 61.4668 875.574 93.1126 875.574 132.004C875.574 170.895 907.219 202.768 946.111 202.768C957.011 202.768 967.32 207.068 975.129 214.887C982.284 222.041 986.502 231.296 987.157 241.169C995.22 240.369 1002.15 235.732 1006.03 228.414C1010.29 220.332 1009.78 211.005 1004.63 203.45C991.502 184.186 970.266 173.141 946.356 173.141C934.901 173.141 923.838 168.213 916.001 159.632C908.201 151.086 904.337 139.631 905.392 128.213C906.338 117.949 911.147 108.486 918.929 101.549C926.647 94.6672 936.602 90.8762 946.956 90.8762H1003.29C1013.66 90.8762 1023.61 94.6672 1031.33 101.549C1039.11 108.486 1043.91 117.958 1044.87 128.213C1045.92 139.631 1042.06 151.077 1034.26 159.632C1026.43 168.223 1015.37 173.141 1003.9 173.141H997.33C1007.12 180.277 1015.5 189.595 1021.92 200.541C1052.59 192.377 1074.67 163.868 1074.67 132.013C1074.67 93.1217 1043.02 61.4759 1004.13 61.4759V61.4668Z" fill="#F3FFF9"/>
<path d="M735.689 215.587C737.525 217.423 738.871 219.659 739.544 222.241H733.598C733.189 221.196 732.516 220.296 731.725 219.55C730.116 217.941 727.834 216.932 725.253 216.932C722.671 216.932 720.425 217.941 718.816 219.55C717.171 221.159 716.162 223.369 716.162 225.76C716.162 228.15 717.171 230.505 718.816 232.114C720.425 233.796 722.707 234.696 725.253 234.696C727.798 234.696 730.116 233.796 731.725 232.114C732.507 231.369 733.18 230.432 733.598 229.496H739.544C738.871 232.005 737.525 234.287 735.689 236.114C732.925 238.696 729.334 240.305 725.253 240.305C721.171 240.305 717.589 238.696 714.898 236.114C712.243 233.423 710.561 229.832 710.561 225.76C710.561 221.687 712.243 218.169 714.898 215.587C717.589 213.005 721.143 211.359 725.253 211.359C729.362 211.359 732.916 213.005 735.689 215.587Z" fill="#F3FFF9"/>
<path d="M780.262 240.905H778.88C777.444 240.905 776.117 240.496 774.953 239.705C773.789 238.914 772.917 237.841 772.38 236.514L766.68 222.168L760.989 236.505C760.426 237.841 759.562 238.914 758.38 239.705C757.207 240.505 755.889 240.905 754.471 240.905H753.089L764.189 213.014H769.162L769.598 214.096L780.271 240.905H780.262Z" fill="#F3FFF9"/>
<path d="M818.781 218.041C817.881 216.523 816.654 215.296 815.126 214.386C813.59 213.477 811.872 213.014 810.026 213.014H794.544V240.905H795.481C796.79 240.905 797.917 240.441 798.844 239.514C799.772 238.596 800.235 237.459 800.235 236.15V233.25H810.026C811.872 233.25 813.581 232.787 815.126 231.878C816.645 230.978 817.881 229.75 818.781 228.232C819.699 226.705 820.154 224.987 820.154 223.114C820.154 221.241 819.699 219.559 818.781 218.032V218.041ZM800.235 218.705H810.026C811.263 218.705 812.29 219.132 813.154 220.005C814.026 220.886 814.444 221.896 814.444 223.123C814.444 224.35 814.026 225.396 813.154 226.268C812.281 227.15 811.263 227.568 810.026 227.568H800.235V218.705Z" fill="#F3FFF9"/>
<path d="M841.063 217.768V240.905H835.381V213.014H836.317C837.635 213.014 838.763 213.477 839.681 214.405C840.608 215.332 841.072 216.459 841.072 217.768H841.063Z" fill="#F3FFF9"/>
<path d="M884.917 213.023V213.96C884.917 215.278 884.453 216.405 883.526 217.323C882.608 218.251 881.481 218.714 880.162 218.714H873.817V240.915H868.144V218.714H861.79C860.48 218.714 859.353 218.251 858.426 217.323C857.508 216.405 857.044 215.278 857.044 213.96V213.023H884.926H884.917Z" fill="#F3FFF9"/>
<path d="M921.427 240.905H920.055C918.609 240.905 917.291 240.496 916.118 239.705C914.964 238.914 914.091 237.841 913.545 236.514L907.836 222.168L902.145 236.505C901.591 237.841 900.727 238.914 899.554 239.705C898.382 240.505 897.063 240.905 895.636 240.905H894.263L905.364 213.014H910.336L910.773 214.096L921.436 240.905H921.427Z" fill="#F3FFF9"/>
<path d="M958.255 235.224V236.16C958.255 237.469 957.791 238.596 956.864 239.524C955.937 240.451 954.809 240.915 953.5 240.915H935.727V213.023H936.664C937.973 213.023 939.1 213.487 940.027 214.414C940.946 215.342 941.409 216.469 941.409 217.778V235.224H958.264H958.255Z" fill="#F3FFF9"/>
</svg>
